<?xml version="1.0" encoding="UTF-8"?>
<!DOCTYPE svg PUBLIC "-//W3C//DTD SVG 1.1//EN" "http://www.w3.org/Graphics/SVG/1.1/DTD/svg11.dtd">
<!-- Creator: CorelDRAW 2018 (64 Bit Versão de avaliação) -->
<svg xmlns="http://www.w3.org/2000/svg" xml:space="preserve" width="94.1166mm" height="20.8883mm" version="1.1" style="shape-rendering:geometricPrecision; text-rendering:geometricPrecision; image-rendering:optimizeQuality; fill-rule:evenodd; clip-rule:evenodd"
viewBox="0 0 9271.56 2057.74"
 xmlns:xlink="http://www.w3.org/1999/xlink">
 <defs>
  <style type="text/css">
   <![CDATA[
    .str0 {stroke:#FEFEFE;stroke-width:60.66;stroke-miterlimit:22.9256}
    .fil1 {fill:none;fill-rule:nonzero}
    .fil0 {fill:#DF0009}
    .fil2 {fill:#2B2A29;fill-rule:nonzero}
    .fil3 {fill:#DF0009;fill-rule:nonzero}
   ]]>
  </style>
 </defs>
 <g id="Camada_x0020_1">
  <metadata id="CorelCorpID_0Corel-Layer"/>
  <path class="fil0" d="M23.99 1525.09c9.54,190.94 316.15,726.66 221.01,216.93 -98.58,-374.5 -39.21,-249.12 156.11,-440.03 95.17,-522.34 -39.57,-579.48 397.71,-547.12 258.44,-2.32 529.02,27.23 786.7,2.41 331.3,-31.88 881.09,-275.94 1236.48,-375.28 1529.77,-427.57 2418.77,-265.71 3794.19,540.6 142.29,188.2 932.7,202.75 1356.39,245.46 477.58,48.14 917.4,-37.73 1112.99,480.29 147.99,808.7 425.76,-108.96 -235.05,-453.94 -238.6,-105.77 -1108.07,-186.48 -1406.74,-214.97 -684.04,-65.32 -607.8,-133.03 -1162.58,-439.79 -351.05,-194.12 -742.48,-361.37 -1134.3,-451.13 -918.76,-210.45 -1885.57,-17.78 -2760.5,285.57 -620.56,215.19 -665.56,275.4 -1357.24,262.54 -409.3,-7.61 -614.98,-36.43 -694.63,7.06 -132.36,72.23 18.08,384.82 -173.29,601.76 -233.78,89.29 -147.57,184.16 -137.25,279.63z"/>
  <g>
   <path class="fil1 str0" d="M765.27 1680.5l198.67 -19.82c11.97,66.78 35.93,115.63 72.33,147.02 36.4,31.39 85.48,46.96 147.24,46.96 65.28,0 114.6,-13.92 147.72,-41.77 33.1,-27.84 49.78,-60.41 49.78,-97.69 0,-24.08 -7.05,-44.37 -20.9,-61.36 -13.85,-16.75 -38.28,-31.39 -73.03,-43.65 -23.73,-8.5 -77.74,-23.13 -162.27,-44.37 -108.73,-27.38 -185.05,-60.88 -228.96,-100.77 -61.77,-55.92 -92.53,-124.12 -92.53,-204.6 0,-51.68 14.57,-100.29 43.45,-145.36 29.11,-45.08 70.91,-79.29 125.63,-102.9 54.72,-23.59 120.47,-35.4 197.96,-35.4 126.1,0 221.21,28.09 284.86,84.48 63.87,56.4 97.21,131.44 100.5,225.6l-204.3 7.08c-8.69,-52.39 -27.24,-89.91 -55.66,-112.81 -28.41,-22.88 -71.14,-34.45 -127.98,-34.45 -58.7,0 -104.73,12.26 -137.85,36.81 -21.37,15.81 -32.17,36.81 -32.17,63.24 0,24.07 10.1,44.6 30.29,61.59 25.6,21.95 87.83,44.61 186.7,68.2 98.86,23.37 171.89,47.91 219.09,72.92 47.44,25.26 84.54,59.47 111.32,103.13 26.77,43.65 40.15,97.46 40.15,161.41 0,58.05 -15.97,112.57 -48.14,163.3 -32.17,50.73 -77.5,88.49 -136.2,113.04 -58.71,24.78 -131.98,37.05 -219.57,37.05 -127.51,0 -225.43,-29.5 -293.77,-88.74 -68.34,-58.99 -108.95,-145.13 -122.34,-258.17zm1325.85 -406.36l0 154.33 -132.45 0 0 297.58c0,60.41 1.17,95.58 3.75,105.49 2.59,9.91 8.23,18.17 17.38,24.78 8.93,6.37 19.73,9.67 32.65,9.67 18.08,0 43.92,-6.14 77.96,-18.64l16.21 151.03c-44.86,19.35 -95.58,29.03 -152.41,29.03 -34.74,0 -65.98,-5.9 -93.93,-17.7 -27.95,-11.8 -48.38,-27.14 -61.28,-45.78 -13.16,-18.88 -22.08,-44.13 -27.25,-76.23 -3.99,-22.66 -6.11,-68.44 -6.11,-137.58l0 -321.65 -88.76 0 0 -154.33 88.76 0 0 -145.85 193.03 -114.69 0 260.53 132.45 0zm278.96 226.55l-174.7 -31.16c19.72,-71.74 53.77,-124.83 101.91,-159.28 48.14,-34.46 119.76,-51.68 214.63,-51.68 86.19,0 150.53,10.15 192.8,30.68 42.03,20.53 71.86,46.49 89.01,78.11 17.14,31.62 25.83,89.44 25.83,173.92l-2.82 226.55c0,64.43 3.05,112.1 9.15,142.77 6.11,30.68 17.62,63.48 34.53,98.4l-191.62 0c-4.94,-12.75 -11.27,-31.62 -18.55,-56.63 -3.05,-11.57 -5.4,-19.12 -6.81,-22.66 -32.88,32.57 -68.1,56.87 -105.67,73.15 -37.58,16.28 -77.5,24.55 -120.01,24.55 -74.91,0 -134.08,-20.54 -177.29,-61.6 -43.21,-40.82 -64.82,-92.74 -64.82,-155.51 0,-41.3 9.87,-78.35 29.6,-110.91 19.72,-32.33 47.2,-57.34 82.89,-74.57 35.46,-17.23 86.65,-32.33 153.59,-45.31 90.16,-16.99 152.86,-33.04 187.62,-47.67l0 -19.59c0,-37.75 -9.17,-64.65 -27.48,-80.94 -18.55,-16.05 -53.3,-24.08 -104.25,-24.08 -34.53,0 -61.29,6.85 -80.55,20.77 -19.49,13.69 -34.99,38 -46.97,72.69zm259.26 157.17c-24.67,8.26 -63.87,18.17 -117.65,29.73 -53.55,11.57 -88.77,22.89 -105.21,33.75 -25.12,18.17 -37.81,40.82 -37.81,68.44 0,27.37 10.11,50.73 30.3,70.55 20.19,19.82 45.79,29.74 77.02,29.74 34.75,0 68.1,-11.57 99.8,-34.46 23.25,-17.69 38.75,-38.93 46.02,-64.43 4.94,-16.51 7.53,-48.13 7.53,-94.63l0 -38.7zm1045.69 351.14l-193.02 0 0 -374.51c0,-79.29 -4.24,-130.5 -12.45,-153.63 -8.45,-23.36 -21.84,-41.3 -40.63,-54.27 -18.8,-12.98 -41.33,-19.36 -67.63,-19.36 -33.82,0 -64.11,9.21 -90.89,27.61 -27,18.41 -45.32,42.95 -55.19,73.15 -10.1,30.44 -15.03,86.61 -15.03,168.73l0 332.27 -193.02 0 0 -734.86 178.94 0 0 107.84c64.11,-82.36 144.65,-123.42 242.11,-123.42 42.74,0 81.95,7.78 117.42,23.12 35.7,15.57 62.47,35.16 80.55,59 18.3,24.07 30.99,51.21 38.04,81.65 7.28,30.45 10.81,73.86 10.81,130.51l0 456.16zm866.29 0l-178.94 0 0 -107.85c-29.84,42.02 -65.29,73.4 -105.92,94.64 -40.62,21 -81.72,31.62 -123.05,31.62 -84.3,0 -156.4,-33.99 -216.51,-102.19 -59.89,-68.2 -89.94,-163.07 -89.94,-285.07 0,-124.6 29.12,-219.46 87.59,-284.36 58.48,-64.9 132.21,-97.22 221.45,-97.22 81.72,0 152.63,34.21 212.28,102.41l0 -365.77 193.03 0 0 1013.79zm-515.69 -381.59c0,78.59 10.8,135.46 32.17,170.62 31.23,50.97 74.67,76.46 130.57,76.46 44.37,0 82.18,-19.12 113.18,-57.35 31.23,-38.22 46.73,-95.09 46.73,-171.08 0,-84.72 -15.03,-145.6 -45.33,-182.89 -30.29,-37.29 -68.8,-55.93 -116.01,-55.93 -45.79,0 -84.07,18.41 -115.06,55.23 -30.77,36.81 -46.26,91.79 -46.26,164.95z"/>
   <path id="1" class="fil2" d="M765.27 1680.5l198.67 -19.82c11.97,66.78 35.93,115.63 72.33,147.02 36.4,31.39 85.48,46.96 147.24,46.96 65.28,0 114.6,-13.92 147.72,-41.77 33.1,-27.84 49.78,-60.41 49.78,-97.69 0,-24.08 -7.05,-44.37 -20.9,-61.36 -13.85,-16.75 -38.28,-31.39 -73.03,-43.65 -23.73,-8.5 -77.74,-23.13 -162.27,-44.37 -108.73,-27.38 -185.05,-60.88 -228.96,-100.77 -61.77,-55.92 -92.53,-124.12 -92.53,-204.6 0,-51.68 14.57,-100.29 43.45,-145.36 29.11,-45.08 70.91,-79.29 125.63,-102.9 54.72,-23.59 120.47,-35.4 197.96,-35.4 126.1,0 221.21,28.09 284.86,84.48 63.87,56.4 97.21,131.44 100.5,225.6l-204.3 7.08c-8.69,-52.39 -27.24,-89.91 -55.66,-112.81 -28.41,-22.88 -71.14,-34.45 -127.98,-34.45 -58.7,0 -104.73,12.26 -137.85,36.81 -21.37,15.81 -32.17,36.81 -32.17,63.24 0,24.07 10.1,44.6 30.29,61.59 25.6,21.95 87.83,44.61 186.7,68.2 98.86,23.37 171.89,47.91 219.09,72.92 47.44,25.26 84.54,59.47 111.32,103.13 26.77,43.65 40.15,97.46 40.15,161.41 0,58.05 -15.97,112.57 -48.14,163.3 -32.17,50.73 -77.5,88.49 -136.2,113.04 -58.71,24.78 -131.98,37.05 -219.57,37.05 -127.51,0 -225.43,-29.5 -293.77,-88.74 -68.34,-58.99 -108.95,-145.13 -122.34,-258.17zm1325.85 -406.36l0 154.33 -132.45 0 0 297.58c0,60.41 1.17,95.58 3.75,105.49 2.59,9.91 8.23,18.17 17.38,24.78 8.93,6.37 19.73,9.67 32.65,9.67 18.08,0 43.92,-6.14 77.96,-18.64l16.21 151.03c-44.86,19.35 -95.58,29.03 -152.41,29.03 -34.74,0 -65.98,-5.9 -93.93,-17.7 -27.95,-11.8 -48.38,-27.14 -61.28,-45.78 -13.16,-18.88 -22.08,-44.13 -27.25,-76.23 -3.99,-22.66 -6.11,-68.44 -6.11,-137.58l0 -321.65 -88.76 0 0 -154.33 88.76 0 0 -145.85 193.03 -114.69 0 260.53 132.45 0zm278.96 226.55l-174.7 -31.16c19.72,-71.74 53.77,-124.83 101.91,-159.28 48.14,-34.46 119.76,-51.68 214.63,-51.68 86.19,0 150.53,10.15 192.8,30.68 42.03,20.53 71.86,46.49 89.01,78.11 17.14,31.62 25.83,89.44 25.83,173.92l-2.82 226.55c0,64.43 3.05,112.1 9.15,142.77 6.11,30.68 17.62,63.48 34.53,98.4l-191.62 0c-4.94,-12.75 -11.27,-31.62 -18.55,-56.63 -3.05,-11.57 -5.4,-19.12 -6.81,-22.66 -32.88,32.57 -68.1,56.87 -105.67,73.15 -37.58,16.28 -77.5,24.55 -120.01,24.55 -74.91,0 -134.08,-20.54 -177.29,-61.6 -43.21,-40.82 -64.82,-92.74 -64.82,-155.51 0,-41.3 9.87,-78.35 29.6,-110.91 19.72,-32.33 47.2,-57.34 82.89,-74.57 35.46,-17.23 86.65,-32.33 153.59,-45.31 90.16,-16.99 152.86,-33.04 187.62,-47.67l0 -19.59c0,-37.75 -9.17,-64.65 -27.48,-80.94 -18.55,-16.05 -53.3,-24.08 -104.25,-24.08 -34.53,0 -61.29,6.85 -80.55,20.77 -19.49,13.69 -34.99,38 -46.97,72.69zm259.26 157.17c-24.67,8.26 -63.87,18.17 -117.65,29.73 -53.55,11.57 -88.77,22.89 -105.21,33.75 -25.12,18.17 -37.81,40.82 -37.81,68.44 0,27.37 10.11,50.73 30.3,70.55 20.19,19.82 45.79,29.74 77.02,29.74 34.75,0 68.1,-11.57 99.8,-34.46 23.25,-17.69 38.75,-38.93 46.02,-64.43 4.94,-16.51 7.53,-48.13 7.53,-94.63l0 -38.7zm1045.69 351.14l-193.02 0 0 -374.51c0,-79.29 -4.24,-130.5 -12.45,-153.63 -8.45,-23.36 -21.84,-41.3 -40.63,-54.27 -18.8,-12.98 -41.33,-19.36 -67.63,-19.36 -33.82,0 -64.11,9.21 -90.89,27.61 -27,18.41 -45.32,42.95 -55.19,73.15 -10.1,30.44 -15.03,86.61 -15.03,168.73l0 332.27 -193.02 0 0 -734.86 178.94 0 0 107.84c64.11,-82.36 144.65,-123.42 242.11,-123.42 42.74,0 81.95,7.78 117.42,23.12 35.7,15.57 62.47,35.16 80.55,59 18.3,24.07 30.99,51.21 38.04,81.65 7.28,30.45 10.81,73.86 10.81,130.51l0 456.16zm866.29 0l-178.94 0 0 -107.85c-29.84,42.02 -65.29,73.4 -105.92,94.64 -40.62,21 -81.72,31.62 -123.05,31.62 -84.3,0 -156.4,-33.99 -216.51,-102.19 -59.89,-68.2 -89.94,-163.07 -89.94,-285.07 0,-124.6 29.12,-219.46 87.59,-284.36 58.48,-64.9 132.21,-97.22 221.45,-97.22 81.72,0 152.63,34.21 212.28,102.41l0 -365.77 193.03 0 0 1013.79zm-515.69 -381.59c0,78.59 10.8,135.46 32.17,170.62 31.23,50.97 74.67,76.46 130.57,76.46 44.37,0 82.18,-19.12 113.18,-57.35 31.23,-38.22 46.73,-95.09 46.73,-171.08 0,-84.72 -15.03,-145.6 -45.33,-182.89 -30.29,-37.29 -68.8,-55.93 -116.01,-55.93 -45.79,0 -84.07,18.41 -115.06,55.23 -30.77,36.81 -46.26,91.79 -46.26,164.95z"/>
  </g>
  <path class="fil3" d="M5651.77 2008.98l-220.67 0 -87.38 -230.79 -405.76 0 -84.07 230.79 -216.67 0 392.81 -1013.79 216.43 0 405.3 1013.79zm-374.45 -402.12l-140.59 -375.21 -136.6 375.21 277.18 0zm482.08 402.12l0 -1013.79 193.58 0 0 1013.79 -193.58 0zm392.58 0l0 -1013.79 193.58 0 0 1013.79 -193.58 0zm1031.26 -516.81l-190.77 33.99c-6.34,-38 -20.95,-66.55 -43.79,-85.9 -22.85,-19.11 -52.28,-28.79 -88.55,-28.79 -48.28,0 -86.91,16.75 -115.63,50.26 -28.74,33.51 -43.1,89.44 -43.1,168.02 0,87.31 14.6,148.91 43.8,185.01 29.21,36.1 68.3,54.04 117.29,54.04 36.73,0 66.88,-10.62 90.2,-31.62 23.54,-21 40.03,-57.12 49.68,-108.56l190.77 32.57c-19.78,87.78 -57.7,154.1 -113.75,198.93 -56.05,44.84 -131.17,67.26 -225.61,67.26 -106.91,0 -192.4,-33.99 -255.99,-101.71 -63.82,-67.96 -95.61,-161.88 -95.61,-282.01 0,-121.53 32.03,-215.93 95.84,-283.65 63.83,-67.73 150.26,-101.47 259.29,-101.47 89.01,0 159.9,19.35 212.66,57.82 52.52,38.46 90.19,96.98 113.28,175.8zm291.31 8.5l-175.21 -31.16c19.78,-71.74 53.93,-124.83 102.21,-159.28 48.28,-34.46 120.11,-51.68 215.25,-51.68 86.43,0 150.95,10.15 193.34,30.68 42.16,20.53 72.07,46.49 89.26,78.11 17.19,31.62 25.9,89.44 25.9,173.92l-2.82 226.55c0,64.43 3.05,112.1 9.18,142.77 6.13,30.68 17.66,63.48 34.63,98.4l-192.18 0c-4.95,-12.75 -11.31,-31.62 -18.6,-56.63 -3.06,-11.57 -5.42,-19.12 -6.84,-22.66 -32.97,32.57 -68.29,56.87 -105.98,73.15 -37.68,16.28 -77.71,24.55 -120.33,24.55 -75.13,0 -134.47,-20.54 -177.8,-61.6 -43.34,-40.82 -65.01,-92.74 -65.01,-155.51 0,-41.3 9.89,-78.35 29.68,-110.91 19.78,-32.33 47.33,-57.34 83.13,-74.57 35.55,-17.23 86.9,-32.33 154.02,-45.31 90.42,-16.99 153.3,-33.04 188.16,-47.67l0 -19.59c0,-37.75 -9.19,-64.65 -27.55,-80.94 -18.61,-16.05 -53.46,-24.08 -104.56,-24.08 -34.63,0 -61.46,6.85 -80.78,20.77 -19.54,13.69 -35.09,38 -47.1,72.69zm259.99 157.17c-24.74,8.26 -64.05,18.17 -117.99,29.73 -53.7,11.57 -89.01,22.89 -105.51,33.75 -25.2,18.17 -37.92,40.82 -37.92,68.44 0,27.37 10.14,50.73 30.39,70.55 20.24,19.82 45.92,29.74 77.23,29.74 34.85,0 68.3,-11.57 100.1,-34.46 23.31,-17.69 38.85,-38.93 46.15,-64.43 4.95,-16.51 7.54,-48.13 7.54,-94.63l0 -38.7zm566.84 351.14l-193.58 0 0 -734.86 179.46 0 0 104.3c30.84,-49.32 58.63,-81.66 83.36,-96.99 24.74,-15.34 52.75,-22.88 84.08,-22.88 44.27,0 86.9,12.26 127.88,36.58l-60.06 169.43c-32.73,-21.24 -63.11,-31.86 -91.12,-31.86 -27.33,0 -50.41,7.56 -69.24,22.42 -18.85,15.1 -33.68,42.01 -44.52,81.18 -10.83,39.17 -16.24,121.3 -16.24,246.13l0 226.55z"/>
 </g>
</svg>
